<?xml version="1.0" standalone="no"?>
<!DOCTYPE svg PUBLIC "-//W3C//DTD SVG 20010904//EN"
 "http://www.w3.org/TR/2001/REC-SVG-20010904/DTD/svg10.dtd">
<svg version="1.0" xmlns="http://www.w3.org/2000/svg"
 width="1056.000000pt" height="1056.000000pt" viewBox="0 0 1056.000000 1056.000000"
 preserveAspectRatio="xMidYMid meet">
<metadata>
Created by potrace 1.14, written by Peter Selinger 2001-2017
</metadata>
<g transform="translate(0.000000,1056.000000) scale(0.100000,-0.100000)"
fill="#000000" stroke="none">
<path d="M3148 10075 c-2 -2 -27 -7 -55 -10 -28 -3 -78 -13 -110 -21 -32 -9
-62 -17 -68 -18 -36 -8 -126 -43 -187 -74 -40 -19 -76 -35 -80 -34 -5 1 -8 -1
-8 -6 0 -4 -20 -18 -45 -32 -25 -14 -45 -28 -45 -32 0 -5 -5 -8 -11 -8 -6 0
-16 -6 -24 -12 -7 -7 -26 -23 -42 -35 -62 -47 -166 -156 -213 -223 -14 -19
-32 -42 -41 -52 -9 -10 -22 -31 -30 -46 -7 -15 -26 -49 -41 -75 -16 -26 -28
-54 -28 -62 0 -8 -4 -15 -9 -15 -5 0 -11 -10 -14 -22 -3 -13 -15 -50 -27 -83
-12 -33 -23 -67 -25 -75 -2 -8 -4 -16 -5 -17 -2 -2 -4 -12 -5 -23 -1 -11 -3
-21 -5 -22 -3 -5 -10 -41 -14 -73 -3 -16 -5 -30 -6 -30 -1 0 -3 -22 -5 -50 -2
-27 -4 -52 -5 -55 -5 -14 -1 -170 5 -179 3 -6 1 -11 -6 -11 -8 0 -8 -4 -2 -12
6 -7 10 -20 10 -28 1 -46 13 -121 22 -138 6 -11 8 -22 5 -25 -3 -3 -2 -12 2
-19 5 -7 10 -22 11 -33 3 -19 10 -39 29 -90 4 -11 8 -22 9 -25 3 -13 46 -107
55 -120 5 -8 20 -35 32 -60 13 -25 25 -47 28 -50 3 -3 25 -32 50 -65 68 -92
177 -207 218 -229 9 -5 19 -13 22 -17 6 -8 79 -58 175 -118 60 -38 181 -125
247 -180 78 -63 280 -258 335 -324 21 -25 174 -219 191 -242 24 -33 106 -160
141 -219 34 -56 170 -320 170 -329 0 -3 29 -75 41 -102 9 -21 74 -217 90 -270
12 -44 48 -195 54 -230 3 -16 8 -43 11 -60 4 -16 8 -46 9 -66 1 -19 5 -40 7
-45 18 -35 18 -583 1 -618 -3 -5 -6 -25 -7 -45 -1 -20 -5 -49 -8 -66 -4 -16
-9 -43 -12 -60 -3 -16 -7 -41 -10 -55 -3 -14 -8 -36 -11 -50 -5 -24 -16 -67
-49 -185 -16 -57 -74 -221 -100 -280 -38 -87 -60 -130 -68 -136 -5 -3 -8 -8
-6 -10 4 -7 -32 -80 -73 -147 -21 -34 -38 -66 -38 -71 0 -5 -4 -11 -8 -13 -4
-1 -20 -24 -35 -50 -15 -26 -33 -53 -40 -60 -6 -7 -28 -36 -46 -63 -19 -28
-38 -52 -41 -55 -3 -3 -15 -17 -26 -32 -67 -86 -122 -146 -205 -220 -120 -108
-144 -128 -151 -128 -5 0 -8 -7 -8 -15 0 -8 -5 -15 -11 -15 -6 0 -16 -6 -23
-12 -7 -7 -46 -42 -87 -78 -40 -36 -89 -79 -109 -97 -118 -107 -138 -123 -205
-166 -27 -17 -56 -37 -63 -44 -7 -7 -17 -13 -22 -13 -14 0 -224 -212 -245
-248 -11 -17 -23 -32 -27 -32 -4 0 -8 -5 -8 -12 0 -6 -6 -19 -14 -27 -31 -36
-125 -229 -142 -291 -47 -174 -55 -218 -59 -310 -2 -30 -4 -57 -5 -60 -6 -18
3 -171 15 -255 11 -76 13 -83 31 -144 10 -31 18 -60 20 -66 5 -20 57 -142 80
-188 43 -84 153 -235 220 -301 36 -37 121 -110 149 -131 16 -11 33 -24 40 -30
29 -26 221 -125 229 -118 3 4 6 2 6 -3 0 -5 21 -16 48 -23 26 -8 52 -17 57
-22 6 -4 24 -10 40 -13 17 -3 64 -13 105 -22 49 -11 127 -17 225 -17 159 -1
218 4 312 29 32 9 63 17 68 18 65 14 284 113 313 143 7 7 19 13 27 13 7 0 15
3 17 8 2 4 21 20 43 36 81 60 204 182 263 261 30 41 92 144 92 153 0 7 4 12 8
12 4 0 13 12 19 28 7 15 23 52 36 82 13 30 24 57 25 60 0 3 3 12 6 20 6 17 34
124 41 155 3 11 7 31 10 45 7 30 14 139 21 305 5 125 11 210 14 210 1 0 3 14
5 30 4 47 15 128 20 155 3 14 8 41 12 60 4 19 7 38 8 42 0 3 3 9 7 13 4 4 4
13 2 20 -3 7 0 16 5 20 6 3 9 10 7 14 -5 8 58 226 92 321 28 74 87 213 119
275 14 27 35 68 46 90 31 61 139 238 154 253 7 7 13 17 13 22 0 5 6 15 13 22
7 7 23 29 37 48 13 19 35 49 49 66 14 17 39 48 56 70 16 21 45 54 62 71 18 18
33 34 33 37 0 4 87 91 166 167 50 46 101 90 206 174 9 8 29 22 45 32 15 10 36
25 46 34 10 10 73 51 140 92 175 108 330 248 405 366 9 14 19 28 23 31 11 10
99 172 99 184 0 7 4 16 9 22 10 11 58 149 66 190 3 16 8 44 11 63 3 18 8 43
11 55 12 43 7 340 -6 364 -8 15 -8 22 -1 22 6 0 8 5 5 11 -6 9 -25 76 -40 144
-6 26 -58 158 -65 165 -3 3 -18 32 -35 65 -41 85 -157 241 -218 294 -10 9 -37
33 -60 54 -23 21 -60 50 -82 65 -22 15 -42 30 -45 33 -3 3 -16 12 -30 19 -34
17 -131 81 -150 97 -8 7 -46 37 -85 66 -88 66 -117 91 -233 202 -127 121 -259
257 -280 286 -9 13 -22 29 -28 34 -7 6 -33 37 -58 70 -25 33 -50 65 -56 72
-31 37 -148 226 -211 343 -36 66 -86 180 -81 184 3 3 0 6 -6 6 -7 0 -12 7 -12
15 0 8 -4 23 -9 33 -9 16 -21 46 -27 67 -1 6 -14 40 -28 78 -14 37 -23 67 -20
67 3 0 0 8 -5 18 -16 30 -64 222 -77 307 -2 11 -5 30 -8 42 -2 12 -7 50 -11
84 -3 34 -8 76 -11 93 -2 17 -6 86 -9 154 -2 68 -7 128 -11 134 -5 7 -2 8 6 3
9 -5 10 -2 6 13 -4 12 -9 52 -11 89 -6 85 -10 118 -24 168 -6 22 -12 49 -14
60 -2 11 -6 27 -9 35 -3 8 -16 44 -29 80 -12 36 -28 68 -33 72 -6 4 -7 8 -3 8
7 0 -60 138 -73 150 -3 3 -18 24 -33 48 -43 66 -197 245 -197 229 0 -2 -19 14
-42 35 -23 21 -67 56 -98 76 -60 40 -220 124 -260 137 -31 9 -39 12 -45 15 -3
1 -8 3 -12 5 -5 1 -15 4 -23 7 -22 9 -97 27 -160 39 -54 11 -344 22 -352 14z"/>
<path d="M7100 10034 c-74 -12 -101 -17 -150 -29 -14 -3 -30 -7 -37 -9 -7 -1
-16 -5 -19 -9 -4 -4 -14 -7 -22 -7 -44 0 -331 -151 -367 -194 -5 -7 -20 -19
-32 -27 -28 -19 -133 -117 -133 -123 0 -3 -10 -16 -22 -29 -54 -55 -148 -185
-148 -203 0 -3 -10 -20 -22 -37 -13 -18 -22 -33 -20 -35 1 -1 -4 -15 -12 -30
-32 -64 -87 -238 -100 -317 -15 -95 -24 -255 -17 -285 1 -3 4 -34 6 -70 3 -36
7 -76 10 -90 4 -14 9 -38 12 -55 7 -39 9 -47 15 -65 3 -8 18 -51 33 -95 41
-121 135 -294 189 -347 10 -10 14 -18 11 -18 -6 0 47 -58 121 -134 70 -71 254
-200 280 -195 4 0 10 -3 13 -8 18 -25 222 -104 298 -116 17 -3 36 -7 41 -10
15 -10 134 -19 247 -20 169 -1 256 12 400 60 44 15 83 26 88 25 4 -1 7 2 7 8
0 5 6 10 13 10 12 0 72 29 147 71 105 59 231 167 327 279 79 94 84 100 75 100
-4 0 0 6 8 13 8 7 21 23 28 35 28 50 104 203 106 214 2 7 8 27 15 43 7 17 13
38 14 48 1 9 5 17 10 17 4 0 6 3 3 8 -2 4 2 32 10 62 15 56 20 83 29 180 10
95 11 121 3 133 -3 6 -3 18 2 28 5 9 6 19 2 23 -3 4 -7 21 -8 39 -3 54 -13
127 -19 137 -3 5 -6 25 -7 45 -1 19 -5 35 -10 35 -4 0 -8 9 -8 19 0 45 -109
299 -132 309 -5 2 -8 9 -8 16 0 7 -8 23 -17 34 -10 12 -34 43 -53 69 -19 27
-37 50 -40 53 -3 3 -26 28 -52 57 -27 29 -48 50 -48 48 0 -2 -17 14 -38 36
-22 21 -44 39 -50 39 -6 0 -12 4 -14 8 -7 17 -144 104 -221 141 -81 38 -224
91 -262 96 -55 8 -102 16 -125 22 -47 11 -275 10 -350 -3z"/>
<path d="M1136 6562 c-3 -3 -23 -6 -43 -8 -21 -1 -58 -8 -83 -14 -25 -6 -55
-13 -67 -15 -49 -11 -171 -59 -238 -94 -146 -75 -307 -201 -391 -305 -21 -27
-49 -60 -61 -75 -13 -14 -23 -29 -23 -33 0 -4 -6 -13 -12 -20 -25 -26 -121
-210 -131 -249 -4 -13 -7 -25 -7 -26 -1 -2 -7 -18 -16 -38 -8 -19 -12 -35 -9
-35 2 0 0 -12 -6 -27 -46 -122 -60 -393 -28 -560 29 -153 30 -157 39 -168 4
-5 10 -23 14 -40 16 -66 123 -273 176 -339 107 -133 182 -205 311 -299 29 -21
78 -49 139 -80 25 -12 48 -26 52 -32 4 -5 8 -7 8 -2 0 4 17 -1 38 -11 35 -18
130 -50 169 -57 10 -2 20 -4 23 -6 3 -1 10 -3 15 -4 6 -1 27 -5 47 -9 20 -5
54 -9 75 -11 21 -2 38 -4 38 -5 0 -5 221 -6 229 -2 4 3 25 6 45 7 119 10 280
59 421 127 36 18 67 35 70 38 3 3 37 26 76 51 65 43 184 144 210 179 7 8 23
27 37 42 50 54 117 156 173 264 31 60 56 109 55 109 -1 0 0 7 3 15 16 49 30
96 31 100 1 3 4 19 8 35 4 17 9 40 12 53 2 13 6 31 9 40 9 30 18 145 18 222 0
245 -67 480 -189 673 -24 37 -43 69 -43 71 0 5 -33 45 -62 77 -10 10 -16 19
-14 19 2 0 -27 32 -65 70 -38 39 -73 70 -79 70 -5 0 -10 4 -10 9 0 4 -19 21
-42 37 -24 16 -52 37 -62 47 -11 9 -25 17 -32 17 -7 0 -14 4 -16 9 -5 13 -210
111 -270 128 -74 21 -156 40 -203 48 -50 9 -332 15 -339 7z"/>
<path d="M9137 6564 c-1 -2 -23 -6 -47 -9 -53 -7 -85 -13 -85 -15 0 -1 -9 -3
-20 -4 -58 -7 -300 -101 -325 -126 -3 -3 -22 -14 -42 -24 -21 -11 -38 -23 -38
-28 0 -4 -6 -8 -13 -8 -26 0 -266 -214 -267 -237 0 -7 -3 -13 -7 -13 -10 0
-99 -122 -95 -128 2 -3 0 -8 -5 -11 -23 -17 -123 -225 -139 -291 -2 -8 -12
-51 -23 -95 -31 -123 -44 -314 -28 -425 4 -25 9 -64 12 -87 3 -23 9 -52 14
-65 4 -13 7 -31 6 -40 -2 -10 0 -18 5 -18 4 0 10 -12 13 -27 9 -52 15 -71 36
-114 12 -23 21 -48 21 -54 0 -6 5 -16 12 -23 6 -6 13 -18 14 -25 1 -7 18 -38
38 -69 20 -32 36 -60 36 -63 0 -4 6 -12 13 -19 6 -7 21 -25 32 -40 49 -68 160
-184 205 -216 19 -13 42 -32 51 -42 9 -10 20 -18 24 -18 4 0 29 -15 56 -34 81
-59 314 -158 402 -171 12 -2 33 -6 47 -9 89 -18 291 -25 385 -13 125 17 145
20 145 27 0 4 6 7 13 7 63 3 301 98 350 141 9 8 17 11 17 6 0 -5 4 -4 8 1 4 6
36 31 72 57 73 51 230 200 230 217 0 6 4 11 9 11 5 0 20 17 32 38 13 20 26 39
29 42 3 3 17 23 30 45 13 22 27 42 30 45 23 20 122 275 136 350 27 147 31 189
29 315 -2 116 -10 184 -30 270 -12 54 -21 82 -47 155 -33 89 -104 233 -119
238 -5 2 -9 9 -9 14 0 10 -55 87 -105 146 -33 40 -133 134 -170 160 -19 14
-35 29 -35 34 0 4 -7 8 -15 8 -8 0 -15 4 -15 9 0 5 -9 13 -20 16 -11 3 -26 12
-32 19 -39 38 -307 149 -388 161 -14 2 -25 4 -25 5 0 1 -34 8 -75 15 -64 11
-324 18 -333 9z"/>
<path d="M7235 3092 c-1 -2 -29 -5 -62 -7 -195 -11 -437 -94 -590 -202 -17
-13 -36 -23 -42 -23 -6 0 -11 -4 -11 -10 0 -5 -7 -10 -16 -10 -8 0 -13 -4 -9
-9 3 -5 -3 -12 -13 -15 -17 -6 -190 -166 -178 -166 3 0 -7 -12 -22 -27 -37
-37 -142 -198 -142 -217 0 -9 -4 -16 -9 -16 -8 0 -19 -20 -26 -50 -1 -3 -11
-25 -22 -50 -18 -40 -50 -138 -58 -180 -2 -8 -4 -15 -5 -15 -4 0 -18 -87 -26
-165 -10 -100 -11 -135 -2 -152 5 -10 4 -19 -2 -23 -6 -4 -8 -10 -5 -15 3 -5
7 -31 9 -57 6 -66 17 -146 23 -156 3 -5 7 -23 10 -40 12 -81 114 -312 176
-401 123 -176 270 -310 445 -407 53 -30 99 -54 102 -55 7 -1 40 -14 75 -29 27
-12 106 -37 130 -41 6 -1 12 -3 15 -4 3 -1 14 -4 25 -6 44 -6 101 -16 125 -20
33 -6 256 -6 295 0 17 2 48 7 70 10 46 7 80 14 80 16 0 1 8 3 18 5 48 9 141
42 217 78 47 22 88 39 93 39 4 -1 7 2 7 7 0 5 9 13 20 16 56 18 260 194 350
303 32 39 70 91 70 97 0 4 9 20 20 35 24 34 79 140 98 190 23 62 56 165 57
180 0 8 4 24 8 35 7 21 17 90 23 164 2 25 5 57 7 71 1 14 -1 40 -4 58 -4 18
-3 32 3 32 5 0 6 5 2 12 -4 6 -8 27 -10 47 -3 47 -12 109 -18 141 -3 14 -8 34
-10 45 -2 11 -9 32 -15 48 -6 15 -9 27 -7 27 16 0 -116 286 -152 329 -7 9 -33
44 -58 78 -52 72 -180 201 -238 240 -23 16 -43 31 -46 35 -26 34 -328 176
-390 183 -3 0 -11 4 -17 8 -7 5 -13 6 -13 3 0 -2 -26 2 -57 9 -32 7 -65 13
-73 13 -8 1 -37 4 -65 7 -68 7 -155 11 -160 7z"/>
</g>
</svg>
